<svg id="article" xmlns="http://www.w3.org/2000/svg" width="32.934" height="30.19" viewBox="0 0 32.934 30.19">
  <g id="Group_328" data-name="Group 328" transform="translate(5.489 24.015)">
    <path id="Path_345" data-name="Path 345" d="M24.927,20.558H5.029a1.029,1.029,0,1,1,0-2.058h19.9a1.029,1.029,0,1,1,0,2.058Z" transform="translate(-4 -18.5)" fill="#fff"/>
  </g>
  <g id="Group_329" data-name="Group 329" transform="translate(20.584 10.292)">
    <path id="Path_346" data-name="Path 346" d="M20.832,10.558h-4.8a1.029,1.029,0,1,1,0-2.058h4.8a1.029,1.029,0,0,1,0,2.058Z" transform="translate(-15 -8.5)" fill="#fff"/>
  </g>
  <g id="Group_330" data-name="Group 330" transform="translate(20.584 14.409)">
    <path id="Path_347" data-name="Path 347" d="M20.832,13.558h-4.8a1.029,1.029,0,1,1,0-2.058h4.8a1.029,1.029,0,0,1,0,2.058Z" transform="translate(-15 -11.5)" fill="#fff"/>
  </g>
  <g id="Group_331" data-name="Group 331" transform="translate(20.584 18.526)">
    <path id="Path_348" data-name="Path 348" d="M20.832,16.558h-4.8a1.029,1.029,0,1,1,0-2.058h4.8a1.029,1.029,0,0,1,0,2.058Z" transform="translate(-15 -14.5)" fill="#fff"/>
  </g>
  <g id="Group_332" data-name="Group 332" transform="translate(5.489 13.762)">
    <path id="Path_349" data-name="Path 349" d="M5.029,16.684A1.03,1.03,0,0,1,4.3,14.926l2.113-2.113a2.409,2.409,0,0,1,3.4,0,.316.316,0,0,0,.515-.026l.712-.891A2.459,2.459,0,0,1,14.8,11.9l1.324,1.652a1.029,1.029,0,1,1-1.606,1.289l-1.331-1.66c-.193-.246-.35-.237-.53-.008l-.718.9a2.48,2.48,0,0,1-3.576.195.3.3,0,0,0-.493,0L5.758,16.382A1.027,1.027,0,0,1,5.029,16.684Z" transform="translate(-4 -11.029)" fill="#fff"/>
  </g>
  <g id="Group_333" data-name="Group 333" transform="translate(5.489 9.606)">
    <path id="Path_350" data-name="Path 350" d="M13.949,20.35H6.4a2.4,2.4,0,0,1-2.4-2.4V10.4A2.4,2.4,0,0,1,6.4,8h7.547a2.4,2.4,0,0,1,2.4,2.4v7.547A2.4,2.4,0,0,1,13.949,20.35ZM6.4,10.058a.343.343,0,0,0-.343.343v7.547a.343.343,0,0,0,.343.343h7.547a.343.343,0,0,0,.343-.343V10.4a.343.343,0,0,0-.343-.343Z" transform="translate(-4 -8)" fill="#fff"/>
  </g>
  <g id="Group_334" data-name="Group 334" transform="translate(0 0)">
    <path id="Path_351" data-name="Path 351" d="M29.161,31.19H3.774A3.777,3.777,0,0,1,0,27.416V4.774A3.777,3.777,0,0,1,3.774,1H29.161a3.777,3.777,0,0,1,3.774,3.774V27.416A3.777,3.777,0,0,1,29.161,31.19ZM3.774,3.058A1.718,1.718,0,0,0,2.058,4.774V27.416a1.718,1.718,0,0,0,1.715,1.715H29.161a1.718,1.718,0,0,0,1.715-1.715V4.774a1.718,1.718,0,0,0-1.715-1.715Z" transform="translate(0 -1)" fill="#fff"/>
  </g>
  <g id="Group_335" data-name="Group 335" transform="translate(0 4.803)">
    <path id="Path_352" data-name="Path 352" d="M31.905,6.558H1.029a1.029,1.029,0,1,1,0-2.058H31.905a1.029,1.029,0,1,1,0,2.058Z" transform="translate(0 -4.5)" fill="#fff"/>
  </g>
</svg>
