<svg width="24" height="24" viewBox="0 0 24 24" fill="none" xmlns="http://www.w3.org/2000/svg">
<rect x="1" y="1" width="22" height="22" rx="11" fill="white"/>
<rect x="1" y="1" width="22" height="22" rx="11" stroke="#F9FEFF" stroke-width="2"/>
<path d="M9.77376 16.8753C14.3021 16.8753 16.7789 13.1237 16.7789 9.87023C16.7789 9.76367 16.7789 9.65759 16.7717 9.55199C17.2535 9.20347 17.6695 8.77193 18 8.27759C17.5507 8.47679 17.074 8.60737 16.5859 8.66495C17.0999 8.35729 17.4846 7.87334 17.6683 7.30319C17.185 7.58999 16.6563 7.7921 16.105 7.90079C15.7338 7.50608 15.2428 7.24471 14.7081 7.15713C14.1734 7.06955 13.6247 7.16065 13.147 7.41632C12.6693 7.67199 12.2891 8.07798 12.0654 8.57146C11.8416 9.06495 11.7868 9.61842 11.9093 10.1462C10.9304 10.0971 9.97288 9.84275 9.09873 9.39959C8.22458 8.95644 7.45338 8.33442 6.8352 7.57391C6.52036 8.11591 6.42394 8.75752 6.56555 9.36812C6.70716 9.97872 7.07617 10.5124 7.59744 10.8605C7.20562 10.849 6.82232 10.7433 6.48 10.5523V10.5835C6.48016 11.1519 6.67693 11.7028 7.03694 12.1427C7.39695 12.5826 7.89803 12.8844 8.4552 12.9969C8.09274 13.0958 7.71244 13.1103 7.34352 13.0392C7.50091 13.5284 7.80721 13.9561 8.21962 14.2627C8.63202 14.5692 9.12991 14.7392 9.64368 14.749C9.13322 15.1502 8.54866 15.4468 7.92344 15.6219C7.29822 15.7971 6.64461 15.8472 6 15.7694C7.12592 16.4919 8.43596 16.8752 9.77376 16.8734" fill="#1DA1F2"/>
</svg>
