<svg id="Group_3779" data-name="Group 3779" xmlns="http://www.w3.org/2000/svg" xmlns:xlink="http://www.w3.org/1999/xlink" width="41.333" height="24.8" viewBox="0 0 41.333 24.8">
  <defs>
    <clipPath id="clip-path">
      <rect id="Rectangle_2694" data-name="Rectangle 2694" width="41.333" height="24.8" fill="none"/>
    </clipPath>
  </defs>
  <g id="Group_3778" data-name="Group 3778" transform="translate(0 0)" clip-path="url(#clip-path)">
    <path id="Path_12210" data-name="Path 12210" d="M50,12.4A12.4,12.4,0,1,1,37.534,0,12.39,12.39,0,0,1,50,12.4" transform="translate(-8.667 0)" fill="#ffb600"/>
    <path id="Path_12211" data-name="Path 12211" d="M37.6,0A12.4,12.4,0,1,1,25.2,12.4" transform="translate(-8.667 0)" fill="#f7981d"/>
    <path id="Path_12212" data-name="Path 12212" d="M44.1,0a12.4,12.4,0,1,1,0,24.8" transform="translate(-15.167 0)" fill="#ff8500"/>
    <path id="Path_12213" data-name="Path 12213" d="M12.269,0A12.4,12.4,0,0,0,12.4,24.8a12.544,12.544,0,0,0,8.332-3.215,11.79,11.79,0,0,0,1.247-1.312H19.42a15.135,15.135,0,0,1-.919-1.247h4.4a8.4,8.4,0,0,0,.722-1.312H17.78a7.82,7.82,0,0,1-.525-1.312h6.823a13.028,13.028,0,0,0,.656-3.937,16.935,16.935,0,0,0-.262-2.624H16.861a9.592,9.592,0,0,1,.328-1.312h6.823a7.82,7.82,0,0,0-.525-1.312H17.714A13.011,13.011,0,0,1,18.436,5.9h4.4a6.239,6.239,0,0,0-.984-1.312H19.42a11.182,11.182,0,0,1,1.247-1.247A12.107,12.107,0,0,0,12.334.131c0-.131,0-.131-.066-.131" transform="translate(0 0)" fill="#ff5050"/>
    <path id="Path_12214" data-name="Path 12214" d="M0,12.469a12.39,12.39,0,0,0,12.4,12.4,12.544,12.544,0,0,0,8.332-3.215,11.79,11.79,0,0,0,1.247-1.312H19.42A15.135,15.135,0,0,1,18.5,19.1h4.4a8.4,8.4,0,0,0,.722-1.312H17.78a7.82,7.82,0,0,1-.525-1.312h6.823a13.028,13.028,0,0,0,.656-3.937,16.935,16.935,0,0,0-.262-2.624H16.861A9.592,9.592,0,0,1,17.189,8.6h6.823a7.82,7.82,0,0,0-.525-1.312H17.714a13.011,13.011,0,0,1,.722-1.312h4.4a6.239,6.239,0,0,0-.984-1.312H19.42a11.182,11.182,0,0,1,1.247-1.247A12.107,12.107,0,0,0,12.334.2h-.066" transform="translate(0 -0.069)" fill="#e52836"/>
    <path id="Path_12215" data-name="Path 12215" d="M18.831,24.869a12.544,12.544,0,0,0,8.332-3.215,11.79,11.79,0,0,0,1.247-1.312H25.851a15.135,15.135,0,0,1-.919-1.247h4.4a8.4,8.4,0,0,0,.722-1.312H24.211a7.82,7.82,0,0,1-.525-1.312H30.51a13.028,13.028,0,0,0,.656-3.937A16.935,16.935,0,0,0,30.9,9.91H23.293A9.592,9.592,0,0,1,23.621,8.6h6.823a7.82,7.82,0,0,0-.525-1.312H24.146a13.011,13.011,0,0,1,.722-1.312h4.4a6.239,6.239,0,0,0-.984-1.312H25.851A11.182,11.182,0,0,1,27.1,3.415,12.107,12.107,0,0,0,18.766.2H18.7" transform="translate(-6.431 -0.069)" fill="#cb2026"/>
    <path id="Path_12216" data-name="Path 12216" d="M24.6,20.674l.2-1.115a2.841,2.841,0,0,1-.328.066c-.459,0-.525-.262-.459-.394l.394-2.3h.722l.2-1.247h-.656L24.8,14.9H23.487s-.787,4.33-.787,4.855a.985.985,0,0,0,1.05,1.115,2.014,2.014,0,0,0,.853-.2" transform="translate(-7.807 -5.124)" fill="#fff"/>
    <path id="Path_12217" data-name="Path 12217" d="M26.3,18.948a2.087,2.087,0,0,0,2.3,2.3,3.406,3.406,0,0,0,1.378-.2l.262-1.247a3.933,3.933,0,0,1-1.378.328c-1.443,0-1.181-1.05-1.181-1.05h2.69a8.507,8.507,0,0,0,.2-1.181,1.778,1.778,0,0,0-1.9-1.9c-1.378-.131-2.362,1.312-2.362,2.952m2.3-1.9c.722,0,.59.853.59.919H27.743c0-.066.131-.919.853-.919" transform="translate(-9.045 -5.498)" fill="#fff"/>
    <path id="Path_12218" data-name="Path 12218" d="M40.608,20.364l.262-1.443a3.224,3.224,0,0,1-1.115.328c-.919,0-1.312-.722-1.312-1.509,0-1.575.787-2.428,1.706-2.428a2.191,2.191,0,0,1,1.181.394l.2-1.378A4.613,4.613,0,0,0,40.018,14C38.509,14,37,15.312,37,17.805c0,1.64.787,2.756,2.362,2.756a5.888,5.888,0,0,0,1.247-.2" transform="translate(-12.725 -4.815)" fill="#fff"/>
    <path id="Path_12219" data-name="Path 12219" d="M13.293,15.8a4.647,4.647,0,0,0-1.575.262l-.2,1.115a3.878,3.878,0,0,1,1.443-.262c.459,0,.853.066.853.459,0,.262-.066.328-.066.328h-.59c-1.115,0-2.362.459-2.362,1.968,0,1.181.787,1.443,1.247,1.443a1.971,1.971,0,0,0,1.378-.59l-.066.525H14.54l.525-3.608a1.555,1.555,0,0,0-1.771-1.64m.262,2.952c0,.2-.131,1.247-.919,1.247a.512.512,0,0,1-.525-.525c0-.328.2-.787,1.181-.787a1.035,1.035,0,0,0,.262.066" transform="translate(-3.714 -5.434)" fill="#fff"/>
    <path id="Path_12220" data-name="Path 12220" d="M18.409,21.08a1.682,1.682,0,0,0,1.968-1.706c0-1.64-1.575-1.312-1.575-1.968,0-.328.262-.459.722-.459.2,0,.919.066.919.066l.2-1.181a4.984,4.984,0,0,0-1.247-.131c-.984,0-1.968.394-1.968,1.706,0,1.509,1.64,1.378,1.64,1.968,0,.394-.459.459-.787.459a4.291,4.291,0,0,1-1.181-.2l-.2,1.181c.066.131.394.262,1.509.262" transform="translate(-5.812 -5.399)" fill="#fff"/>
    <path id="Path_12221" data-name="Path 12221" d="M57.14,14.2l-.262,1.771a1.819,1.819,0,0,0-1.247-.656c-1.181,0-2.231,1.443-2.231,3.149,0,1.05.525,2.165,1.64,2.165a1.751,1.751,0,0,0,1.247-.525l-.066.459h1.312l.984-6.3Zm-.59,3.477c0,.722-.328,1.64-1.05,1.64-.459,0-.722-.394-.722-1.05,0-1.05.459-1.706,1.05-1.706.459,0,.722.328.722,1.115" transform="translate(-18.365 -4.884)" fill="#fff"/>
    <path id="Path_12222" data-name="Path 12222" d="M3.047,20.5l.787-4.724L3.965,20.5h.919l1.706-4.724L5.868,20.5H7.246L8.3,14.2H6.13L4.818,18.071,4.752,14.2H2.85L1.8,20.5Z" transform="translate(-0.619 -4.884)" fill="#fff"/>
    <path id="Path_12223" data-name="Path 12223" d="M33.943,21.117c.394-2.165.459-3.937,1.378-3.608A5.15,5.15,0,0,1,35.78,16h-.262c-.59,0-1.05.787-1.05.787l.131-.722H33.353L32.5,21.183h1.443Z" transform="translate(-11.177 -5.503)" fill="#fff"/>
    <path id="Path_12224" data-name="Path 12224" d="M45.793,15.8a4.647,4.647,0,0,0-1.575.262l-.2,1.115a3.878,3.878,0,0,1,1.443-.262c.459,0,.853.066.853.459,0,.262-.066.328-.066.328h-.59c-1.115,0-2.362.459-2.362,1.968,0,1.181.787,1.443,1.247,1.443a1.971,1.971,0,0,0,1.378-.59l-.066.525H47.04l.525-3.608a1.532,1.532,0,0,0-1.771-1.64m.328,2.952c0,.2-.131,1.247-.919,1.247a.512.512,0,0,1-.525-.525c0-.328.2-.787,1.181-.787.2.066.2.066.262.066" transform="translate(-14.891 -5.434)" fill="#fff"/>
    <path id="Path_12225" data-name="Path 12225" d="M50.743,21.117c.394-2.165.459-3.937,1.378-3.608A5.15,5.15,0,0,1,52.58,16h-.262c-.59,0-1.05.787-1.05.787l.131-.722H50.153L49.3,21.183h1.443Z" transform="translate(-16.955 -5.503)" fill="#fff"/>
    <path id="Path_12226" data-name="Path 12226" d="M22.5,19.755a.985.985,0,0,0,1.05,1.115,2.5,2.5,0,0,0,.984-.2l.2-1.115a2.841,2.841,0,0,1-.328.066c-.459,0-.525-.262-.459-.394l.394-2.3h.722l.2-1.247H24.6l.131-.787" transform="translate(-7.738 -5.124)" fill="#dce5e5"/>
    <path id="Path_12227" data-name="Path 12227" d="M27.3,18.948c0,1.837.59,2.3,1.64,2.3a3.406,3.406,0,0,0,1.378-.2L30.58,19.8a3.933,3.933,0,0,1-1.378.328c-1.443,0-1.181-1.05-1.181-1.05h2.69a8.507,8.507,0,0,0,.2-1.181,1.778,1.778,0,0,0-1.9-1.9c-1.378-.131-1.706,1.312-1.706,2.952m1.64-1.9c.722,0,.853.853.853.919H28.087c0-.066.131-.919.853-.919" transform="translate(-9.389 -5.498)" fill="#dce5e5"/>
    <path id="Path_12228" data-name="Path 12228" d="M40.952,20.364l.262-1.443a3.224,3.224,0,0,1-1.115.328c-.919,0-1.312-.722-1.312-1.509,0-1.575.787-2.428,1.706-2.428a2.191,2.191,0,0,1,1.181.394l.2-1.378A4.613,4.613,0,0,0,40.362,14C38.853,14,38,15.312,38,17.805c0,1.64.131,2.756,1.706,2.756a5.888,5.888,0,0,0,1.247-.2" transform="translate(-13.069 -4.815)" fill="#dce5e5"/>
    <path id="Path_12229" data-name="Path 12229" d="M11.522,17.312a3.878,3.878,0,0,1,1.443-.262c.459,0,.853.066.853.459,0,.262-.066.328-.066.328h-.59c-1.115,0-2.362.459-2.362,1.968,0,1.181.787,1.443,1.247,1.443a1.971,1.971,0,0,0,1.378-.59l-.066.525H14.54l.525-3.608c0-1.509-1.312-1.575-1.837-1.575m.984,2.821a2.148,2.148,0,0,1-1.575,1.247.512.512,0,0,1-.525-.525c0-.328.2-.787,1.181-.787a5.36,5.36,0,0,0,.919.066" transform="translate(-3.714 -5.503)" fill="#dce5e5"/>
    <path id="Path_12230" data-name="Path 12230" d="M17,20.949a5.553,5.553,0,0,0,1.509.131,1.682,1.682,0,0,0,1.968-1.706c0-1.64-1.575-1.312-1.575-1.968,0-.328.262-.459.722-.459.2,0,.919.066.919.066l.2-1.181a4.984,4.984,0,0,0-1.247-.131c-.984,0-1.312.394-1.312,1.706,0,1.509.984,1.378.984,1.968,0,.394-.459.459-.787.459" transform="translate(-5.847 -5.399)" fill="#dce5e5"/>
    <path id="Path_12231" data-name="Path 12231" d="M57.219,16.006a1.819,1.819,0,0,0-1.247-.656c-1.181,0-1.575,1.443-1.575,3.149,0,1.05-.131,2.165.984,2.165a1.751,1.751,0,0,0,1.247-.525l-.066.459h1.312l.984-6.3m-1.706,3.412c0,.722-.59,1.64-1.312,1.64-.459,0-.722-.394-.722-1.05,0-1.05.459-1.706,1.05-1.706a1,1,0,0,1,.984,1.115" transform="translate(-18.706 -4.918)" fill="#dce5e5"/>
    <path id="Path_12232" data-name="Path 12232" d="M3.047,20.5l.787-4.724L3.965,20.5h.919l1.706-4.724L5.868,20.5H7.246L8.3,14.2H6.655L4.818,18.071,4.752,14.2H4.031L1.8,20.5Z" transform="translate(-0.619 -4.884)" fill="#dce5e5"/>
    <path id="Path_12233" data-name="Path 12233" d="M32.6,21.117h1.378c.394-2.165.459-3.937,1.378-3.608A5.15,5.15,0,0,1,35.815,16h-.262c-.59,0-1.05.787-1.05.787l.131-.722" transform="translate(-11.212 -5.503)" fill="#dce5e5"/>
    <path id="Path_12234" data-name="Path 12234" d="M44.022,17.312a3.878,3.878,0,0,1,1.443-.262c.459,0,.853.066.853.459,0,.262-.066.328-.066.328h-.59c-1.115,0-2.362.459-2.362,1.968,0,1.181.787,1.443,1.247,1.443a1.971,1.971,0,0,0,1.378-.59l-.066.525H47.04l.525-3.608c0-1.509-1.312-1.575-1.837-1.575m.984,2.821a2.148,2.148,0,0,1-1.575,1.247.512.512,0,0,1-.525-.525c0-.328.2-.787,1.181-.787a5.772,5.772,0,0,0,.919.066" transform="translate(-14.891 -5.503)" fill="#dce5e5"/>
    <path id="Path_12235" data-name="Path 12235" d="M49.4,21.117h1.378c.394-2.165.459-3.937,1.378-3.608A5.149,5.149,0,0,1,52.615,16h-.262c-.59,0-1.05.787-1.05.787l.131-.722" transform="translate(-16.989 -5.503)" fill="#dce5e5"/>
  </g>
</svg>
