<svg width="30" height="30" viewBox="0 0 30 30" fill="#000000" xmlns="http://www.w3.org/2000/svg">
<path d="M2.5037 10.0457C2.07765 10.0457 1.72078 9.90062 1.43307 9.61042C1.14436 9.32124 1 8.96252 1 8.53429V5.51143C1 5.08319 1.14436 4.72397 1.43307 4.43378C1.72078 4.14459 2.07765 4 2.5037 4H5.51111C5.93716 4 6.29454 4.14459 6.58325 4.43378C6.87096 4.72397 7.01481 5.08319 7.01481 5.51143V8.53429C7.01481 8.96252 6.87096 9.32124 6.58325 9.61042C6.29454 9.90062 5.93716 10.0457 5.51111 10.0457H2.5037ZM10.9556 10.0457C10.5295 10.0457 10.1726 9.90062 9.88492 9.61042C9.59621 9.32124 9.45185 8.96252 9.45185 8.53429V5.51143C9.45185 5.08319 9.59621 4.72397 9.88492 4.43378C10.1726 4.14459 10.5295 4 10.9556 4H27.4963C27.9223 4 28.2792 4.14459 28.5669 4.43378C28.8556 4.72397 29 5.08319 29 5.51143V8.53429C29 8.96252 28.8556 9.32124 28.5669 9.61042C28.2792 9.90062 27.9223 10.0457 27.4963 10.0457H10.9556ZM10.9556 18.5229C10.5295 18.5229 10.1726 18.3778 9.88492 18.0876C9.59621 17.7984 9.45185 17.4397 9.45185 17.0114V13.9886C9.45185 13.5603 9.59621 13.2011 9.88492 12.9109C10.1726 12.6217 10.5295 12.4771 10.9556 12.4771H27.4963C27.9223 12.4771 28.2792 12.6217 28.5669 12.9109C28.8556 13.2011 29 13.5603 29 13.9886V17.0114C29 17.4397 28.8556 17.7984 28.5669 18.0876C28.2792 18.3778 27.9223 18.5229 27.4963 18.5229H10.9556ZM2.5037 18.5229C2.07765 18.5229 1.72078 18.3778 1.43307 18.0876C1.14436 17.7984 1 17.4397 1 17.0114V13.9886C1 13.5603 1.14436 13.2011 1.43307 12.9109C1.72078 12.6217 2.07765 12.4771 2.5037 12.4771H5.51111C5.93716 12.4771 6.29454 12.6217 6.58325 12.9109C6.87096 13.2011 7.01481 13.5603 7.01481 13.9886V17.0114C7.01481 17.4397 6.87096 17.7984 6.58325 18.0876C6.29454 18.3778 5.93716 18.5229 5.51111 18.5229H2.5037ZM10.9556 27C10.5295 27 10.1726 26.8549 9.88492 26.5647C9.59621 26.2755 9.45185 25.9168 9.45185 25.4886V22.4657C9.45185 22.0375 9.59621 21.6783 9.88492 21.3881C10.1726 21.0989 10.5295 20.9543 10.9556 20.9543H27.4963C27.9223 20.9543 28.2792 21.0989 28.5669 21.3881C28.8556 21.6783 29 22.0375 29 22.4657V25.4886C29 25.9168 28.8556 26.2755 28.5669 26.5647C28.2792 26.8549 27.9223 27 27.4963 27H10.9556ZM2.5037 27C2.07765 27 1.72078 26.8549 1.43307 26.5647C1.14436 26.2755 1 25.9168 1 25.4886V22.4657C1 22.0375 1.14436 21.6783 1.43307 21.3881C1.72078 21.0989 2.07765 20.9543 2.5037 20.9543H5.51111C5.93716 20.9543 6.29454 21.0989 6.58325 21.3881C6.87096 21.6783 7.01481 22.0375 7.01481 22.4657V25.4886C7.01481 25.9168 6.87096 26.2755 6.58325 26.5647C6.29454 26.8549 5.93716 27 5.51111 27H2.5037Z" fill="#000000"/>
</svg>
