<svg id="facebook" xmlns="http://www.w3.org/2000/svg" width="23.054" height="23.054" viewBox="0 0 23.054 23.054">
  <path id="Path_9801" data-name="Path 9801" d="M21.782,0H1.272A1.272,1.272,0,0,0,0,1.273v20.51a1.272,1.272,0,0,0,1.273,1.272H21.782a1.272,1.272,0,0,0,1.273-1.272h0V1.272A1.272,1.272,0,0,0,21.782,0Zm0,0" fill="#4267b2"/>
  <path id="Path_9802" data-name="Path 9802" d="M213.6,96.9V87.981H216.6l.45-3.49H213.6V82.269c0-1.008.28-1.695,1.725-1.695h1.832V77.461a24.625,24.625,0,0,0-2.685-.137c-2.657,0-4.475,1.621-4.475,4.6v2.568H207v3.49h2.994V96.9Zm0,0" transform="translate(-197.679 -73.842)" fill="#fff"/>
</svg>
