<svg width="24" height="24" viewBox="0 0 24 24" fill="none" xmlns="http://www.w3.org/2000/svg">
<path fill-rule="evenodd" clip-rule="evenodd" d="M5 3C3.89543 3 3 3.89543 3 5V19C3 20.1046 3.89543 21 5 21H13V23H5C2.79086 23 1 21.2091 1 19V5C1 2.79086 2.79086 1 5 1H12C12.2652 1 12.5196 1.10536 12.7071 1.29289L18.7071 7.29289C18.8946 7.48043 19 7.73478 19 8V10H17V8.41421L11.5858 3H5Z" fill="#1BA3FF"/>
<path fill-rule="evenodd" clip-rule="evenodd" d="M11.6173 1.07615C11.991 0.921369 12.4211 1.00692 12.7071 1.29292L18.7071 7.29292C18.9931 7.57892 19.0787 8.00904 18.9239 8.38271C18.7691 8.75639 18.4045 9.00003 18 9.00003H15C12.7909 9.00003 11 7.20917 11 5.00003V2.00003C11 1.59557 11.2436 1.23093 11.6173 1.07615ZM13 4.41424V5.00003C13 6.1046 13.8954 7.00003 15 7.00003H15.5858L13 4.41424Z" fill="#1BA3FF"/>
<path fill-rule="evenodd" clip-rule="evenodd" d="M15.5 13C14.1193 13 13 14.1193 13 15.5C13 16.8807 14.1193 18 15.5 18C16.8807 18 18 16.8807 18 15.5C18 14.1193 16.8807 13 15.5 13ZM11 15.5C11 13.0147 13.0147 11 15.5 11C17.9853 11 20 13.0147 20 15.5C20 17.9853 17.9853 20 15.5 20C13.0147 20 11 17.9853 11 15.5Z" fill="#1BA3FF"/>
<path fill-rule="evenodd" clip-rule="evenodd" d="M18.7072 17.293L22.7072 21.293L21.293 22.7072L17.293 18.7072L18.7072 17.293Z" fill="#1BA3FF"/>
<path fill-rule="evenodd" clip-rule="evenodd" d="M10 8H5V6H10V8Z" fill="#1BA3FF"/>
<path fill-rule="evenodd" clip-rule="evenodd" d="M10 13H5V11H10V13Z" fill="#1BA3FF"/>
<path fill-rule="evenodd" clip-rule="evenodd" d="M10 18H5V16H10V18Z" fill="#1BA3FF"/>
</svg>
