<svg width="30" height="30" viewBox="0 0 30 30" fill="#000000" xmlns="http://www.w3.org/2000/svg">
<path d="M24.5731 12.1265L15.8231 4.47023C15.3518 4.05786 14.6482 4.05786 14.1769 4.47023L5.42687 12.1265C5.1556 12.3638 5 12.7067 5 13.0672V23.75C5 24.4403 5.55964 25 6.25 25H11.25C11.9404 25 12.5 24.4403 12.5 23.75V18.75C12.5 18.0596 13.0596 17.5 13.75 17.5H16.25C16.9404 17.5 17.5 18.0596 17.5 18.75V23.75C17.5 24.4403 18.0596 25 18.75 25H23.75C24.4404 25 25 24.4403 25 23.75V13.0672C25 12.7067 24.8444 12.3638 24.5731 12.1265Z" fill="#000000"/>
</svg>
