<svg width="30" height="31" viewBox="0 0 30 31" fill="none" xmlns="http://www.w3.org/2000/svg">
<g filter="url(#filter0_d_1609_7206)">
<path fill-rule="evenodd" clip-rule="evenodd" d="M25.7071 1.29289C25.9963 1.58203 26.0802 2.01808 25.9192 2.39392L17.3477 22.3939C17.1842 22.7755 16.8018 23.0164 16.387 22.9991C15.9722 22.9819 15.6112 22.7101 15.4799 22.3162L12.7809 14.2191L4.68378 11.5201C4.2899 11.3888 4.01812 11.0278 4.00087 10.613C3.98362 10.1982 4.22448 9.81583 4.60609 9.65228L24.6061 1.08085C24.9819 0.919778 25.418 1.00375 25.7071 1.29289ZM7.81146 10.4545L13.8877 12.4799C14.1863 12.5794 14.4206 12.8137 14.5201 13.1123L16.5455 19.1885L23.0961 3.90394L7.81146 10.4545Z" fill="#0FBADD"/>
<path fill-rule="evenodd" clip-rule="evenodd" d="M25.2072 3.20711L14.2072 14.2071L12.793 12.7929L23.793 1.79289L25.2072 3.20711Z" fill="#0FBADD"/>
</g>
<defs>
<filter id="filter0_d_1609_7206" x="-1" y="0" width="32" height="32" filterUnits="userSpaceOnUse" color-interpolation-filters="sRGB">
<feFlood flood-opacity="0" result="BackgroundImageFix"/>
<feColorMatrix in="SourceAlpha" type="matrix" values="0 0 0 0 0 0 0 0 0 0 0 0 0 0 0 0 0 0 127 0" result="hardAlpha"/>
<feOffset dy="4"/>
<feGaussianBlur stdDeviation="2"/>
<feComposite in2="hardAlpha" operator="out"/>
<feColorMatrix type="matrix" values="0 0 0 0 0 0 0 0 0 0 0 0 0 0 0 0 0 0 0.25 0"/>
<feBlend mode="normal" in2="BackgroundImageFix" result="effect1_dropShadow_1609_7206"/>
<feBlend mode="normal" in="SourceGraphic" in2="effect1_dropShadow_1609_7206" result="shape"/>
</filter>
</defs>
</svg>
