<svg xmlns="http://www.w3.org/2000/svg" width="31" height="31" viewBox="0 0 31 31">
  <path id="Icon_material-help-outline" data-name="Icon material-help-outline" d="M16.95,27.8h3.1V24.7h-3.1ZM18.5,3A15.5,15.5,0,1,0,34,18.5,15.506,15.506,0,0,0,18.5,3Zm0,27.9A12.4,12.4,0,1,1,30.9,18.5,12.416,12.416,0,0,1,18.5,30.9Zm0-21.7a6.2,6.2,0,0,0-6.2,6.2h3.1a3.1,3.1,0,0,1,6.2,0c0,3.1-4.65,2.713-4.65,7.75h3.1c0-3.488,4.65-3.875,4.65-7.75A6.2,6.2,0,0,0,18.5,9.2Z" transform="translate(-3 -3)" fill="#ed4e29"/>
</svg>
