<svg id="Group_3756" data-name="Group 3756" xmlns="http://www.w3.org/2000/svg" xmlns:xlink="http://www.w3.org/1999/xlink" width="62" height="62" viewBox="0 0 62 62">
  <defs>
    <clipPath id="clip-path">
      <rect id="Rectangle_2674" data-name="Rectangle 2674" width="62" height="62" fill="#fff"/>
    </clipPath>
  </defs>
  <g id="Group_3748" data-name="Group 3748" clip-path="url(#clip-path)">
    <path id="Path_12197" data-name="Path 12197" d="M51.029,8.755A29.892,29.892,0,1,0,8.755,51.029,29.892,29.892,0,0,0,51.029,8.755M12.974,50.128a17.1,17.1,0,0,1,16.919-15.05,17.038,17.038,0,0,1,16.919,15.05,26.334,26.334,0,0,1-33.838,0M29.892,31.47a9.079,9.079,0,1,1,9.079-9.079,9.09,9.09,0,0,1-9.079,9.079m19.934,15.7a20.592,20.592,0,0,0-12.89-14.355,12.582,12.582,0,1,0-14.084,0,20.574,20.574,0,0,0-12.9,14.35,26.389,26.389,0,1,1,39.871,0" transform="translate(0 0)" fill="#fff"/>
  </g>
</svg>
